<svg xmlns="http://www.w3.org/2000/svg" width="44" height="44" viewBox="0 0 44 44" fill="none"><g clip-path="url(#clip0_1007_105)"><path d="M31.4628 14.8951C32.1287 15.561 32.1287 16.6403 31.4628 17.3058L20.0277 28.7412C19.3619 29.4067 18.2829 29.4067 17.6171 28.7412L12.1735 23.2973C11.5077 22.6318 11.5077 21.5525 12.1735 20.887C12.839 20.2212 13.9183 20.2212 14.5839 20.887L18.8222 25.1254L29.0522 14.8951C29.718 14.2296 30.7973 14.2296 31.4628 14.8951ZM43.6364 21.8182C43.6364 33.8782 33.8765 43.6364 21.8182 43.6364C9.75819 43.6364 0 33.8765 0 21.8182C0 9.75819 9.75985 0 21.8182 0C33.8782 0 43.6364 9.75985 43.6364 21.8182ZM40.2273 21.8182C40.2273 11.6425 31.9925 3.40909 21.8182 3.40909C11.6425 3.40909 3.40909 11.6438 3.40909 21.8182C3.40909 31.9939 11.6438 40.2273 21.8182 40.2273C31.9939 40.2273 40.2273 31.9925 40.2273 21.8182Z" fill="#0ED678"></path></g><defs><clipPath id="clip0_1007_105"><rect width="43.6364" height="43.6364" fill="white"></rect></clipPath></defs></svg>