<svg xmlns="http://www.w3.org/2000/svg" width="44" height="44" viewBox="0 0 44 44" fill="none"><g clip-path="url(#clip0_1007_195)"><path d="M42.0433 13.61C40.98 10.9783 39.3816 8.51098 37.2536 6.38336C35.1259 4.25532 32.6585 2.65697 30.0268 1.59359C27.3948 0.529869 24.5985 -0.000244141 21.8035 -0.000244141C19.0125 -0.000244141 16.2215 0.532341 13.5952 1.59726C10.969 2.66183 8.50768 4.2601 6.38467 6.38345C4.26123 8.50655 2.66297 10.968 1.59848 13.5943C0.533562 16.2206 0.000976562 19.0116 0.000976562 21.8028C0.000976562 24.5977 0.531261 27.3938 1.59481 30.0259C2.65819 32.6575 4.25655 35.1249 6.38458 37.2525C8.5122 39.3804 10.9795 40.9788 13.6112 42.0422C16.2432 43.1058 19.0393 43.636 21.8342 43.6362C24.6253 43.6362 27.4164 43.1036 30.0429 42.0388C32.6691 40.9743 35.1306 39.3761 37.2537 37.2526C39.3772 35.1294 40.9754 32.668 42.0399 30.0417C43.1048 27.4152 43.6373 24.6242 43.6374 21.833C43.6373 19.0381 43.1071 16.2419 42.0433 13.61ZM39.3428 28.9481C38.4206 31.2222 37.0402 33.3499 35.1957 35.1945C33.3512 37.0388 31.2235 38.4193 28.9494 39.3416C26.6756 40.2636 24.2552 40.7258 21.8342 40.7258C19.4072 40.7258 16.9808 40.265 14.7017 39.3439C12.4224 38.4223 10.2904 37.0421 8.44257 35.1946C6.59501 33.3466 5.21467 31.2147 4.29328 28.9353C3.37214 26.6562 2.9114 24.2297 2.91149 21.8027C2.9114 19.3818 3.37368 16.9616 4.29558 14.6877C5.21782 12.4136 6.59825 10.2859 8.44265 8.44135C10.2872 6.59703 12.4148 5.2166 14.6889 4.29427C16.9626 3.37228 19.3828 2.91001 21.8036 2.91001C24.2307 2.91001 26.6573 3.37067 28.9364 4.2918C31.2158 5.21319 33.3479 6.59353 35.1959 8.44118C37.0435 10.2891 38.4237 12.421 39.3452 14.7004C40.2663 16.9794 40.7271 19.4058 40.7271 21.8329C40.727 24.2539 40.2648 26.6742 39.3428 28.9481Z" fill="#F25F5F"></path><path d="M23.8319 21.8182L30.8796 14.7705C31.4357 14.2144 31.4357 13.313 30.8796 12.7569C30.3236 12.2008 29.422 12.2008 28.8659 12.7569L21.8182 19.8046L14.7705 12.7569C14.2144 12.2009 13.313 12.2009 12.7569 12.7569C12.2008 13.313 12.2008 14.2145 12.7569 14.7706L19.8046 21.8183L12.7569 28.866C12.2008 29.4219 12.2008 30.3236 12.7569 30.8797C13.313 31.4357 14.2144 31.4357 14.7705 30.8797L21.8182 23.8319L28.8659 30.8796C29.422 31.4356 30.3235 31.4356 30.8796 30.8796C31.4357 30.3236 31.4357 29.422 30.8796 28.8659L23.8319 21.8182Z" fill="#F25F5F"></path></g><defs><clipPath id="clip0_1007_195"><rect width="43.6364" height="43.6364" fill="white"></rect></clipPath></defs></svg>